/* XPM */
static char *b6babdf68ed54392f858693582d66feecjZN8ofwqdP7YHhE[] = {
/* columns rows colors chars-per-pixel */
"32 32 120 2 ",
"   c None",
".  c black",
"X  c #010101",
"o  c #010202",
"O  c #020202",
"+  c gray1",
"@  c #040404",
"#  c gray2",
"$  c #060606",
"%  c #070707",
"&  c gray3",
"*  c #090909",
"=  c gray4",
"-  c #0B0B0B",
";  c #0C0C0C",
":  c gray5",
">  c #0E0E0E",
",  c gray6",
"<  c #10100F",
"1  c #101010",
"2  c #111111",
"3  c #111211",
"4  c gray7",
"5  c #131313",
"6  c gray8",
"7  c #151515",
"8  c #151616",
"9  c #161616",
"0  c gray9",
"q  c #181818",
"w  c #191919",
"e  c gray10",
"r  c #1B1B1B",
"t  c #1C1C1B",
"y  c gray11",
"u  c #1D1D1D",
"i  c #1E1E1E",
"p  c gray12",
"a  c #202020",
"s  c gray13",
"d  c #222222",
"f  c #252525",
"g  c #262625",
"h  c #272727",
"j  c #282828",
"k  c gray16",
"l  c #2A2A2A",
"z  c gray17",
"x  c #2C2C2C",
"c  c #2D2D2D",
"v  c gray18",
"b  c #323232",
"n  c gray21",
"m  c #373737",
"M  c gray22",
"N  c #393939",
"B  c #3A3A3A",
"V  c gray23",
"C  c #3C3C3C",
"Z  c #3D3E3D",
"A  c #3F3F3F",
"S  c #414141",
"D  c #434343",
"F  c #444444",
"G  c gray27",
"H  c #464646",
"J  c gray28",
"K  c #474847",
"L  c #484848",
"P  c #494949",
"I  c gray29",
"U  c #4B4B4B",
"Y  c #4C4C4C",
"T  c gray30",
"R  c gray31",
"E  c #505050",
"W  c #515050",
"Q  c #535352",
"!  c #535353",
"~  c #545453",
"^  c gray33",
"/  c #565656",
"(  c #585858",
")  c gray36",
"_  c gray37",
"`  c #606060",
"'  c #606160",
"]  c gray38",
"[  c #626262",
"{  c gray39",
"}  c #636463",
"|  c #646463",
" . c #646464",
".. c #656565",
"X. c #676766",
"o. c #676767",
"O. c #676867",
"+. c DimGray",
"@. c #696A69",
"#. c #6A6A6A",
"$. c #6B6B6A",
"%. c gray42",
"&. c #6C6C6C",
"*. c gray43",
"=. c #6F6F6F",
"-. c gray44",
";. c #727272",
":. c gray45",
">. c #767676",
",. c #797979",
"<. c #7C7C7C",
"1. c gray50",
"2. c #818181",
"3. c gray51",
"4. c #848484",
"5. c gray53",
"6. c #888887",
"7. c #888888",
"8. c gray55",
"9. c #8D8D8D",
/* pixels */
"                                                                ",
"                                              x h >             ",
"                                          ;.n j j 5             ",
"                                      ~ 6.8.;.B h w             ",
"                                  | x h I <.8.,.B 5             ",
"                            u I 2.7.o.x d B o.! h               ",
"                        4.%.x u S <.7.o.d 5                     ",
"                    0 h %.4.%.x w n ( A                         ",
"                &.<.K 0 d { 2._ w -                             ",
"            I > x &.<.I 0 u A j                                 ",
"        w o.>.A - j o._ u                                       ",
"        % d o.>.n % w                                           ",
"        % % u I j                                               ",
"        % O O                                                   ",
"        O O > { { > h ;.R - x ;./ - u %.%.u - G ;./ > %         ",
"        O O x &.B % R &.h - ! &.j % S ;.I - w } &.x % O         ",
"        O - ( { 5 d &.R % j &.! - u O.{ w % G ;.R - % O         ",
"        O 5 G x O b ! u % G _ d % S o.B % d o.{ u % % O         ",
"        O O O O O % % O % - > % % 5 0 - O 5 d u % % % O         ",
"        O O O O O O O O - - - - % % O O % O O O O O O O         ",
"        O O O O O O O O 5 w w w u u u u u t w w w 0 % O         ",
"        O O O O O O O O O O O O O O % % % - - > > > % O         ",
"        O O O O O O O O 5 0 0 5 > > - - % % O O O O O O         ",
"        O O O O O O O O % - > 5 5 0 w w w w w w w 0 % O         ",
"        O O O O O O O O O O O O O O O O O O % % - - % O         ",
"        % % O O O O O O 5 w w 0 0 5 > > - % % O O O O O         ",
"        0 0 0 0 0 5 > - - % % - - - < 5 0 w w w w 0 % O         ",
"        O O O % % - > 5 0 0 w 0 0 5 5 > - % % % % % O O         ",
"                    O O O O O % % - > 5 0 0 w w 0 0 5 %         ",
"                                  O O O O O O % % - > %         ",
"                                                  O O O         ",
"                                                                "
};
